<svg xmlns="http://www.w3.org/2000/svg" viewBox="0 0 144 35" fill="none">
  <path d="M22.067 34.667h-9.88L9.047 11.233 6.095 29.533H0L6.75 0h10.972l-4.188 23.434 3.533-23.434h9.133l-6.163 34.667zM42.348 34.667h-9.453l1.838-10.367c.21-.933.263-1.474.158-2.167-.105-.695-.315-1.284-.63-1.767-.316-.482-.737-.817-1.264-1.05-.526-.233-1.105-.35-1.737-.35-.947 0-1.737.316-2.368 1.05-.632.733-.948 1.838-.948 3.316l-3.053 11.334H15.4L22.15 0h10.971l-6.75 34.667zm22.464 0h-9.88L51.79 11.233l-2.952 18.3h-6.095L49.5 0h10.971l-4.188 23.434L60.017 0h9.133l-6.163 34.667zm24.18-15.45c0-4.42-1.473-7.842-4.42-10.263-2.947-2.42-6.947-3.632-11.948-3.632h-7.684l6.095 34.666h9.632c5.42 0 9.789-1.21 13.105-3.632 3.315-2.42 4.973-5.947 4.973-10.526 0-3.37-.842-6.095-2.526-8.17-.105 0-.158-.052-.21-.104.158-.263.263-.526.316-.737.158-.631.21-1.316.21-2.105zm-16.738 9.316c1.895 0 3.21.21 3.947.632.737.42 1.105 1.157 1.105 2.105 0 1.053-.526 1.842-1.579 2.368-1.052.527-2.631.79-4.737.79h-3.42l1.685-9.473h3.052zm-1.053-6.105h-2.158l1.42-8.053h1.895c1.421 0 2.473.158 3.158.474.684.316 1.026.842 1.026 1.579 0 .842-.42 1.473-1.263 1.894-.842.422-2.105.632-3.79.632h-.262zM122.95 34.667h-9.453l1.838-10.367c.21-.933.263-1.474.158-2.167-.105-.695-.316-1.284-.631-1.767-.316-.482-.737-.817-1.264-1.05-.526-.233-1.105-.35-1.737-.35-.947 0-1.737.316-2.368 1.05-.632.733-.948 1.838-.948 3.316l-3.053 11.334H95.16L101.91 0h10.972l-6.75 34.667zm20.811-34.667l-7.42 25.158-2.737-14.79L129.55 0h-9.553L111.45 34.667h8.842l2.316-11.895 3.316 11.895h6.631l8.58-25.79 2.947 15.316 2.053-10.158h9.158L144 34.667h8.842l-8.527-34.667h-9.737z" fill="#fff"/>
</svg>